IKResults
version=1
nRows=14
nColumns=40
inDegrees=yes

Units are S.I. units (second, meters, Newtons, ...)
Angles are in degrees.

endheader
time	pelvis_tilt	pelvis_list	pelvis_rotation	pelvis_tx	pelvis_ty	pelvis_tz	hip_flexion_r	hip_adduction_r	hip_rotation_r	knee_angle_r	knee_angle_r_beta	ankle_angle_r	subtalar_angle_r	mtp_angle_r	hip_flexion_l	hip_adduction_l	hip_rotation_l	knee_angle_l	knee_angle_l_beta	ankle_angle_l	subtalar_angle_l	mtp_angle_l	lumbar_extension	lumbar_bending	lumbar_rotation	arm_flex_r	arm_add_r	arm_rot_r	elbow_flex_r	pro_sup_r	wrist_flex_r	wrist_dev_r	arm_flex_l	arm_add_l	arm_rot_l	elbow_flex_l	pro_sup_l	wrist_flex_l	wrist_dev_l
      0.51000000	     16.90145539	     -1.69087258	      4.28374299	     -0.77750897	      0.95797233	     -1.42986411	    -16.91689113	      5.02817255	    -19.06240965	    -13.14037041	     -0.22934273	      9.04116330	     -1.42777753	     -4.98424836	     -6.83854817	      5.96168191	     -3.58375144	    -52.51154742	     -0.91649940	     10.35628745	     18.37963819	     11.27703102	    -21.92081187	      1.64626378	     -2.73394665	     -1.57855345	    -11.85406947	     -3.79654519	     35.44656377	     89.95437384	      0.00000000	      0.00000000	      2.27137186	      7.75839736	     15.63742296	     16.83004934	     89.95437384	      0.00000000	      0.00000000
      0.52000000	     16.70514430	     -1.37512349	      3.73760326	     -0.76853614	      0.95761614	     -1.42877026	    -17.22332046	      4.60007549	    -18.45062478	    -13.33973872	     -0.23282236	      9.41300319	     -1.59627612	     -4.92402891	     -5.59662238	      5.37635755	     -3.16131935	    -51.65784734	     -0.90159952	     11.11407859	     18.28751569	     11.17866802	    -21.92605711	      1.11121077	     -2.17503715	     -1.15660148	    -12.17315412	     -3.75026641	     36.92763571	     89.95437384	      0.00000000	      0.00000000	      1.61801300	      7.77977794	     15.07781824	     15.67058697	     89.95437384	      0.00000000	      0.00000000
      0.53000000	     16.47223369	     -1.22101309	      3.65209079	     -0.75862961	      0.95700364	     -1.42776916	    -17.60482222	      4.49845579	    -18.51739856	    -13.40124614	     -0.23389587	      9.58138789	     -1.70355034	     -4.85657618	     -4.23780859	      5.21877797	     -2.77030537	    -50.74981778	     -0.88575142	     11.41821201	     18.16072447	     11.04233778	    -21.71665620	      0.82421260	     -2.18887083	     -0.58012848	    -12.25551602	     -3.80125283	     37.99012272	     89.95437384	      0.00000000	      0.00000000	      0.51402634	      7.86413483	     14.77334968	     15.00996000	     89.95437384	      0.00000000	      0.00000000
      0.54000000	     16.52668465	     -0.63997188	      3.00767282	     -0.74928182	      0.95672474	     -1.42708212	    -18.27978152	      3.76865273	    -17.73658849	    -13.46945599	     -0.23508636	     10.06452117	     -1.98936327	     -4.74543306	     -3.51484974	      4.24028815	     -2.35410920	    -49.39238083	     -0.86205967	     12.33198446	     18.04958939	     10.84910670	    -21.95013386	      0.04410344	     -1.50015952	     -0.43183342	    -12.67232366	     -3.85890730	     39.88734640	     89.95437384	      0.00000000	      0.00000000	     -0.19299492	      7.90899110	     13.30983677	     14.17159902	     89.95437384	      0.00000000	      0.00000000
      0.55000000	     16.52152877	     -0.17422723	      2.33854359	     -0.74001709	      0.95623872	     -1.42607967	    -18.75116854	      3.12389394	    -17.08744028	    -13.77767937	     -0.24046587	     10.52221328	     -2.59755866	     -4.56615567	     -2.70690388	      3.57989661	     -1.47473818	    -47.89530763	     -0.83593081	     12.56633337	     17.92137933	     10.64428340	    -22.11305648	     -0.65993278	     -0.89885716	     -0.06469491	    -13.00404391	     -3.85762357	     41.40939754	     89.95437384	      0.00000000	      0.00000000	     -1.26876067	      8.03934611	     11.44576770	     14.00300580	     89.95437384	      0.00000000	      0.00000000
      0.56000000	     16.73512063	      0.16190928	      2.38841931	     -0.72938961	      0.95597943	     -1.42553129	    -19.85397183	      2.95648089	    -17.07753928	    -13.43175263	     -0.23442831	     10.50899992	     -3.11320609	     -4.24136461	     -2.17907929	      3.17132250	     -1.23647479	    -46.23946354	     -0.80703088	     12.74875061	     17.67085089	     10.27971123	    -22.29683885	     -1.05424668	     -0.86628488	      0.17521507	    -13.07812243	     -4.26237710	     42.73325957	     89.95437384	      0.00000000	      0.00000000	     -2.65914219	      8.36173354	      8.76852985	     14.19146261	     89.95437384	      0.00000000	      0.00000000
      0.57000000	     16.58311666	      0.49148462	      1.99575608	     -0.71978966	      0.95498843	     -1.42475786	    -20.18071235	      2.55274776	    -16.49654444	    -13.73303377	     -0.23968666	     11.00857537	     -3.60396123	     -4.03253783	     -1.17454744	      2.73589391	     -0.44175222	    -44.64820190	     -0.77925813	     12.93832418	     17.27506300	      9.79889476	    -22.22966265	     -1.55496488	     -0.52570293	      0.51049032	    -13.32787850	     -4.37189251	     44.23122472	     89.95437384	      0.00000000	      0.00000000	     -3.82874661	      8.48373384	      7.13137553	     14.24150130	     89.95437384	      0.00000000	      0.00000000
      0.58000000	     16.19708548	      0.54029854	      2.04280013	     -0.71022663	      0.95351596	     -1.42441746	    -20.20405204	      2.54195282	    -16.46523467	    -14.09266954	     -0.24596348	     11.14101222	     -3.74291803	     -3.94488829	      0.28383186	      2.67935112	      0.12132859	    -43.27076022	     -0.75521724	     12.85130893	     16.83019707	      9.57575533	    -21.89199298	     -1.63757208	     -0.62512883	      1.03919793	    -13.48561401	     -4.43000976	     45.34737278	     89.95437384	      0.00000000	      0.00000000	     -4.95601975	      8.44431737	      6.75829930	     14.13980527	     89.95437384	      0.00000000	      0.00000000
      0.59000000	     16.50894297	      1.13087481	      1.34296783	     -0.70016613	      0.95311431	     -1.42364201	    -21.16857051	      1.83192616	    -15.23717911	    -14.19346412	     -0.24772268	     11.58819578	     -4.88503333	     -3.27218644	      0.29724224	      1.92373395	      1.18026678	    -40.78580992	     -0.71184667	     12.66649664	     16.08768835	      7.81735009	    -22.27430202	     -2.44643303	      0.16629492	      1.07754306	    -13.79484452	     -4.83595739	     47.02486927	     89.95437384	      0.00000000	      0.00000000	     -6.31830659	      8.89771776	      2.45186333	     14.81956201	     89.95437384	      0.00000000	      0.00000000
      0.60000000	     16.36834686	      1.42344730	      0.83609677	     -0.69080454	      0.95189016	     -1.42304496	    -21.36795857	      1.39351043	    -14.32430384	    -14.71009338	     -0.25673956	     12.00777991	     -5.41444807	     -2.77903621	      1.09045553	      1.56582669	      2.25329897	    -38.70896218	     -0.67559884	     12.33337325	     15.19050108	      6.42412725	    -22.25040632	     -2.90925984	      0.61689581	      1.45648401	    -14.04090314	     -5.01751750	     48.37609721	     89.95437384	      0.00000000	      0.00000000	     -7.36172597	      8.93992048	      1.21071977	     14.89139930	     89.95437384	      0.00000000	      0.00000000
      0.61000000	     16.15879983	      1.71941133	      0.64832769	     -0.68089388	      0.95042234	     -1.42292966	    -21.57905058	      1.05973721	    -13.79781587	    -15.17683814	     -0.26488580	     12.48411626	     -5.97232832	     -2.56611977	      1.94086628	      1.19511321	      3.05201417	    -36.59041572	     -0.63862323	     12.12374152	     14.12429877	      5.56448238	    -22.06859648	     -3.26553962	      0.74205956	      1.76506175	    -14.25596066	     -5.17504200	     49.63052278	     89.95437384	      0.00000000	      0.00000000	     -8.42437652	      8.93345715	      0.45340088	     14.84927469	     89.95437384	      0.00000000	      0.00000000
      0.62000000	     15.95848782	      2.00555924	      0.53825819	     -0.67120853	      0.94893336	     -1.42300800	    -21.79663469	      0.75566287	    -13.35093248	    -15.59948054	     -0.27226230	     12.91412112	     -6.57103341	     -2.36958020	      2.74623214	      0.83843181	      3.82984488	    -34.40290040	     -0.60044388	     11.75499853	     12.78372843	      4.86788361	    -21.95724094	     -3.57453189	      0.85952763	      2.10019049	    -14.52221429	     -5.25627799	     50.83461694	     89.95437384	      0.00000000	      0.00000000	     -9.33787078	      8.90737955	     -0.16890380	     14.78434702	     89.95437384	      0.00000000	      0.00000000
      0.63000000	     15.77367150	      2.19782435	      0.30388037	     -0.66152772	      0.94734884	     -1.42296711	    -22.01761705	      0.50292017	    -12.76250622	    -16.03765734	     -0.27990992	     13.29574128	     -7.09953808	     -2.22622621	      3.46161906	      0.58904359	      4.84690307	    -32.08657422	     -0.56001637	     11.37581393	     11.46222626	      4.27088869	    -21.84857032	     -3.81825697	      1.08755111	      2.41074468	    -14.76635775	     -5.38522717	     52.07060736	     89.95437384	      0.00000000	      0.00000000	    -10.23205200	      8.82476071	     -0.62136030	     14.69152037	     89.95437384	      0.00000000	      0.00000000
      0.64000000	     15.91532155	      2.27268467	     -0.06970449	     -0.65114121	      0.94622589	     -1.42242533	    -22.93609544	      0.51471009	    -11.32443385	    -15.87524949	     -0.27707537	     13.31506269	     -8.46849053	      0.06715984	      3.67921083	      0.69889051	      6.78399921	    -29.55874878	     -0.51589749	     10.31495048	     10.22709003	     -4.22168169	    -22.00357497	     -4.01803212	      1.52658827	      2.61532197	    -14.95445021	     -5.60838050	     53.26731908	     89.95437384	      0.00000000	      0.00000000	    -11.18054591	      8.84294880	     -1.48907008	     14.71630738	     89.95437384	      0.00000000	      0.00000000
